<svg width="128" height="128" viewBox="0 0 128 128" fill="none" xmlns="http://www.w3.org/2000/svg">
<path d="M55.649 40.6539C54.87 40.7838 54.2209 41.2057 53.7503 41.9035C53.5718 42.1631 52.1762 46.1877 50.6345 50.8126C49.1091 55.4538 44.8087 68.4524 41.0925 79.6984C37.3763 90.9444 33.9035 101.46 33.368 103.067C32.8487 104.673 32.4105 106.15 32.4105 106.361C32.4105 106.929 32.6864 107.335 33.2706 107.643C33.7412 107.903 34.4228 107.935 39.7131 107.984C42.9749 108.016 46.0096 108 46.4802 107.935C47.5025 107.805 48.2652 107.318 48.6547 106.556C48.817 106.247 49.6609 103.586 50.5534 100.665C51.4297 97.7277 52.2736 95.1961 52.4196 95.0176C52.6793 94.7255 53.0363 94.7093 63.7792 94.7093C72.3962 94.7093 74.9278 94.758 75.1388 94.9203C75.301 95.0339 76.0475 97.2409 77.1024 100.779C78.0436 103.911 78.9523 106.637 79.1146 106.864C79.2769 107.091 79.6664 107.432 79.9747 107.611C80.494 107.919 80.8672 107.935 87.1637 107.984C91.5777 108.016 94.093 107.968 94.661 107.854C95.6671 107.643 96.1864 107.124 96.1864 106.312C96.1864 106.036 95.6022 104.057 94.872 101.915C94.158 99.7887 92.7948 95.7641 91.8536 93.0054C90.9124 90.2304 89.2896 85.4107 88.2347 82.2949C87.1799 79.1629 85.2163 73.3695 83.8532 69.3937C82.5063 65.4178 80.8186 60.4845 80.1208 58.4398C74.1651 40.8974 74.3923 41.4978 73.2563 40.8649C72.7857 40.6215 72.0068 40.589 64.5419 40.5728C60.0305 40.5566 56.0384 40.589 55.649 40.6539ZM67.5116 68.9555C69.459 75.3006 71.0493 80.5585 71.0331 80.6234C71.0331 80.7046 67.82 80.7532 63.8766 80.7532C57.142 80.7532 56.7362 80.737 56.8174 80.4611C56.8661 80.3151 58.2617 75.6901 59.9169 70.2051C61.5884 64.72 63.1463 59.592 63.3735 58.7968C63.6169 58.0179 63.8441 57.385 63.8928 57.385C63.9415 57.385 65.5643 62.5941 67.5116 68.9555Z" fill="black"/>
<path d="M66.0001 31C41 32 21.5 41.5 23 43C24.5001 44.5 33.5 45 35.5 45C37.5001 45 38.5001 46.5 36.5 47.5C34.5 48.5 29.5001 49.5 23.5 49.5C17.5 49.5 9.69236 49.5 9.50006 47C9.00006 40.5 19.0001 24.5 20.5001 23C22 21.5 24.0001 23 22.5001 25.5C21.0001 28 18.5 37.5 19.5 37.5C20.5 37.5 36.5 22.5 66.0001 21.5C95.5001 20.5 115 43 116 44C117 45 117.5 48 114 46C110.5 44 91.0001 30 66.0001 31Z" fill="#0040BF"/>
</svg>
