<svg width="288" height="128" viewBox="0 0 288 128" fill="none" xmlns="http://www.w3.org/2000/svg">
<path d="M42.4957 29.0555C41.6668 30.2267 37.8367 37.9402 36.2933 41.5683C33.9209 47.1106 31.9773 53.4813 31.6629 56.7666C31.4914 58.4807 31.52 58.5664 32.406 59.3949C35.493 62.2803 44.8681 63.1087 52.471 61.1661C56.1868 60.2234 64.3614 57.0809 65.2761 56.2524C66.0478 55.5382 66.0478 54.5669 65.3046 53.7669C64.5901 53.0242 64.7616 53.0242 61.9891 53.567C58.1018 54.3097 56.7013 54.424 51.8708 54.424C47.269 54.424 47.1261 54.3954 45.6684 53.6241C44.0392 52.7956 43.0388 51.5386 42.3242 49.4817C41.381 46.7963 42.2385 41.3398 44.9824 32.4551C45.8113 29.8268 45.8399 29.5697 45.4397 28.9412C44.7823 27.9699 43.2389 28.027 42.4957 29.0555Z" fill="#0040BF"/>
<path d="M50.4999 48C46.5828 48.3022 47.5295 45.6712 48.4999 45C49.4704 44.3288 79.4999 16.5 141.5 14C203.5 11.5 247.5 50 249 51.5C250.5 53 253 54.5 249.5 56.5C248 55.5 197.227 26.0893 141.5 28C85.7733 29.9107 63 46 50.4999 48Z" fill="#0040BF"/>
<path d="M29.9479 70.0508C29.3477 70.7365 28.1472 74.1932 26.175 80.8496C25.5462 82.9636 23.8027 88.763 22.2878 93.7053C18.7435 105.304 17 111.389 17 112.189C17 113.103 17.8575 113.446 20.6586 113.617C23.574 113.789 25.3747 113.417 26.0035 112.446C26.2322 112.103 26.8324 109.989 27.3469 107.761L28.233 103.704H40.9522L41.5811 106.475C42.5529 110.903 42.9816 112.217 43.639 112.817C44.3822 113.532 46.2686 113.76 50.0129 113.646C52.614 113.56 52.8712 113.503 52.957 112.989C52.9855 112.675 51.7851 108.504 50.2988 103.704C47.2404 94.0481 41.3238 74.7931 40.5807 72.1649C39.8089 69.4509 39.7232 69.4223 34.7784 69.4223C30.7482 69.4223 30.491 69.4509 29.9479 70.0508ZM36.722 87.5917C37.8367 91.5055 38.8086 94.9337 38.8943 95.1908C39.0372 95.6765 38.6942 95.7051 34.5783 95.7051C30.4624 95.7051 30.1194 95.6765 30.2623 95.1908C30.6339 94.0195 32.4632 86.9632 33.3207 83.4779C33.8923 81.221 34.3497 79.8497 34.4926 80.0783C34.6069 80.3068 35.6073 83.6778 36.722 87.5917ZM70.1351 79.2783C68.6488 79.6783 66.648 80.7925 65.5333 81.8495C65.1046 82.2494 64.6758 82.5637 64.5901 82.5637C64.5043 82.5637 64.4472 82.078 64.4472 81.4781C64.4472 80.8782 64.2471 80.1068 63.9899 79.7354C63.5325 79.1069 63.4182 79.0784 61.103 79.2783C59.7882 79.3926 58.502 79.5069 58.2162 79.564C57.9589 79.6212 57.6445 79.6783 57.5302 79.6783C57.4158 79.7069 57.13 79.9068 56.9014 80.164C56.5012 80.5639 56.444 82.4209 56.444 96.5335C56.444 115.389 55.9867 113.503 60.5599 113.646C62.132 113.703 63.7898 113.617 64.2471 113.446L65.0188 113.132V102.047C65.0188 92.7625 65.1046 90.7056 65.4476 89.6772C66.2479 87.4489 67.8199 86.2776 70.0494 86.2776C71.1641 86.2776 71.5071 86.4204 72.3074 87.2203C72.8219 87.7345 73.3935 88.6773 73.565 89.2772C73.7651 90.02 73.8794 94.3338 73.8794 101.447C73.8794 110.503 73.9652 112.56 74.2796 113.017C74.6226 113.474 75.1085 113.56 77.8524 113.646C80.9108 113.76 81.0251 113.732 81.7397 113.017L82.4542 112.303L82.4828 102.361C82.4828 90.877 82.54 90.2771 83.3975 88.763C84.3693 86.9918 85.3411 86.4204 87.3419 86.4204C88.8282 86.4204 89.114 86.5061 89.8857 87.306C90.3716 87.7917 90.8861 88.6773 91.029 89.3058C91.1719 89.9057 91.3149 95.248 91.3149 101.162C91.3149 111.189 91.3434 111.96 91.8293 112.56C92.4296 113.303 94.1731 113.646 97.3458 113.674C100.433 113.703 100.233 114.76 100.118 99.6475C100.004 87.0489 100.004 86.6489 99.3466 84.7349C98.8321 83.1922 98.3748 82.4494 97.2315 81.2781C95.345 79.4212 93.9445 78.9927 89.9429 79.0212C87.199 79.0498 86.9131 79.1069 84.9123 80.1068C83.7405 80.6782 82.3971 81.5924 81.8826 82.1637C81.3967 82.7351 80.9679 83.1636 80.9394 83.1065C79.7675 81.2781 78.9672 80.3925 77.9096 79.764C76.7663 79.1069 76.2518 78.9927 74.0224 78.9641C72.6218 78.9355 70.8497 79.0784 70.1351 79.2783ZM113.952 79.2783C110.151 80.1068 107.636 82.3637 106.978 85.5348C106.464 88.2202 107.064 89.0772 110.065 89.8486C112.895 90.5914 113.123 90.5056 113.752 88.6487C114.553 86.3347 115.667 85.6205 118.097 85.7919C119.097 85.849 120.212 86.1347 120.641 86.3918C121.612 87.0489 122.213 88.5344 122.27 90.5056L122.327 92.1055L121.327 92.3054C120.784 92.4197 119.24 92.5626 117.897 92.6768C114.41 92.9054 113.095 93.1339 111.408 93.7624C106.921 95.4194 104.463 98.9333 104.463 103.676C104.463 107.132 105.635 110.075 107.636 111.818C109.322 113.246 111.208 113.789 114.467 113.817C116.839 113.846 117.382 113.76 118.811 113.075C119.697 112.675 121.012 111.789 121.698 111.132L122.984 109.961L123.184 111.16C123.442 112.732 124.099 113.303 126.043 113.703C127.929 114.103 129.844 113.874 131.359 113.103C132.617 112.475 132.76 112.132 132.76 110.046C132.76 108.532 132.703 108.389 131.902 107.932L131.045 107.447V99.0761C131.016 87.4488 130.616 84.9348 128.387 82.3637C126.9 80.7068 125.242 79.7926 122.87 79.2783C120.441 78.7641 116.353 78.7641 113.952 79.2783ZM122.327 100.562C122.327 103.476 121.784 104.79 120.098 106.018C117.296 108.047 113.724 107.047 113.152 104.104C112.58 100.99 114.81 98.819 119.126 98.3048C122.527 97.9048 122.327 97.762 122.327 100.562ZM174.062 79.1355C169.774 79.7926 166.316 82.9351 164.801 87.506C162.972 92.9339 162.972 99.9617 164.772 104.875C166.887 110.675 170.603 113.532 176.548 113.903C183.408 114.36 187.953 111.418 190.354 104.99C190.754 103.99 191.125 102.79 191.211 102.361C191.268 101.933 191.468 100.962 191.583 100.219C191.983 98.2191 191.783 92.734 191.268 90.2771C190.697 87.706 189.125 84.4492 187.581 82.7065C186.266 81.221 183.122 79.564 180.807 79.1355C179.064 78.8213 176.177 78.8213 174.062 79.1355ZM179.578 86.3918C182.093 87.706 182.951 90.5342 182.865 97.0763C182.779 103.847 181.121 106.847 177.434 106.847C175.777 106.847 174.433 106.104 173.747 104.79C172.347 102.076 171.861 96.8192 172.604 92.0769C173.033 89.1344 174.004 87.1346 175.291 86.449C176.291 85.9062 178.578 85.8776 179.578 86.3918ZM205.502 79.2498C200.758 80.3925 197.699 83.735 196.156 89.4772C195.298 92.6768 195.213 100.219 196.013 103.133C197.671 109.046 201.472 112.875 206.531 113.703C217.65 115.503 223.795 109.075 223.795 95.7051C223.795 92.534 223.681 91.4484 223.138 89.5629C221.452 83.7064 217.707 79.964 212.762 79.1355C210.39 78.7641 207.303 78.8213 205.502 79.2498ZM211.848 86.5347C212.762 86.9632 213.22 87.4203 213.734 88.4773C214.706 90.3628 214.935 91.9912 214.906 96.8478C214.849 104.218 213.448 106.847 209.475 106.847C206.217 106.847 204.531 103.961 204.273 97.962C203.959 89.9914 205.645 85.9919 209.333 85.9919C210.047 85.9919 211.19 86.249 211.848 86.5347ZM241.831 79.4212C240.145 80.0211 238.087 81.2496 237.401 82.1066C236.858 82.7351 236.515 82.4208 236.515 81.2496C236.515 80.0497 235.686 79.1355 234.6 79.1355C234.142 79.1355 232.827 79.2783 231.656 79.4212C228.226 79.8783 228.512 78.2785 228.512 96.8478C228.512 115.789 227.997 113.846 232.942 113.846C235.171 113.846 236.286 113.732 236.6 113.474C237.001 113.132 237.058 111.703 237.143 101.619L237.229 90.1343L237.944 88.8773C238.916 87.1632 239.916 86.5061 241.717 86.3347C242.974 86.249 243.374 86.3347 244.032 86.8489C245.804 88.2488 245.804 88.1631 245.947 101.047C246.09 111.789 246.147 112.875 246.604 113.332C247.319 114.046 252.635 114.074 253.721 113.36L254.493 112.846L254.579 101.362C254.665 88.7058 254.636 89.0772 256.494 87.306C258.237 85.649 261.41 86.1347 262.668 88.2773C263.211 89.2201 263.239 89.8771 263.382 101.219C263.497 111.16 263.582 113.189 263.925 113.417C265.183 114.16 270.728 114.046 271.528 113.217C272.157 112.589 272.157 88.4202 271.528 85.7633C270.471 81.3353 268.184 79.3355 263.611 78.9641C260.038 78.6498 256.065 79.9068 254.122 81.9638C253.636 82.4494 253.178 82.8494 253.093 82.8494C252.978 82.8494 252.492 82.278 251.978 81.5638C250.634 79.6783 249.205 79.0498 246.09 78.9355C244.032 78.8498 243.174 78.9641 241.831 79.4212ZM138.219 79.9926C137.562 80.9924 137.59 85.6205 138.276 86.6489L138.762 87.4203H143.907C146.737 87.4203 149.052 87.506 149.052 87.6203C149.052 87.706 148.309 88.8487 147.365 90.1057C142.821 96.3621 136.79 105.247 136.333 106.418C135.761 107.732 135.789 110.561 136.361 111.989L136.818 113.132H159.342L159.799 112.417C160.313 111.646 160.513 107.904 160.113 106.504C159.799 105.361 158.541 105.133 152.396 105.133H147.051L149.595 101.333C150.995 99.2761 153.654 95.4479 155.454 92.8482C159.77 86.6775 160.199 85.849 160.199 83.3636C160.199 81.1353 159.627 79.4212 158.856 79.3926C158.57 79.3926 153.911 79.3641 148.509 79.3355L138.676 79.2783L138.219 79.9926Z" fill="black"/>
</svg>
